<?xml version="1.0" standalone="no"?>
<!DOCTYPE svg PUBLIC "-//W3C//DTD SVG 20010904//EN"
 "http://www.w3.org/TR/2001/REC-SVG-20010904/DTD/svg10.dtd">
<svg version="1.0" xmlns="http://www.w3.org/2000/svg"
 width="675.000000pt" height="675.000000pt" viewBox="0 0 675.000000 675.000000"
 preserveAspectRatio="xMidYMid meet">
<metadata>
Created by potrace 1.14, written by Peter Selinger 2001-2017
</metadata>
<g transform="translate(0.000000,675.000000) scale(0.100000,-0.100000)"
fill="#000000" stroke="none">
<path d="M2170 6740 c-30 -4 -77 -11 -105 -14 -162 -20 -357 -71 -540 -141
-95 -36 -298 -137 -363 -180 -30 -19 -56 -35 -59 -35 -25 0 -339 -255 -419
-341 -72 -78 -138 -154 -164 -188 -14 -18 -30 -38 -36 -44 -5 -7 -44 -64 -86
-127 -148 -223 -252 -456 -318 -708 -34 -128 -47 -199 -70 -377 -9 -75 -7
-2412 3 -2455 3 -14 8 -47 12 -75 103 -773 630 -1485 1348 -1824 246 -116 528
-195 782 -219 107 -10 2361 -9 2451 1 39 4 82 10 95 12 13 3 41 7 64 11 47 7
197 41 240 54 17 6 53 17 80 25 170 53 400 162 562 267 54 35 105 68 113 75
141 111 190 153 270 233 110 109 146 149 217 241 50 64 143 197 143 204 0 1
17 32 38 66 105 173 193 394 257 644 5 17 9 35 11 40 1 6 9 53 18 105 8 52 18
111 22 130 11 52 14 2382 3 2465 -5 39 -11 88 -14 110 -12 104 -61 307 -102
425 -121 350 -308 653 -563 911 -169 170 -318 286 -516 400 -220 127 -531 244
-728 273 -21 4 -41 8 -45 10 -3 2 -35 7 -71 11 -36 4 -74 10 -85 13 -30 9
-2381 11 -2445 2z"/>
</g>
</svg>
